<svg width="302" height="57" viewBox="0 0 302 57" xmlns="http://www.w3.org/2000/svg">
  <rect x="11.375" y="26.75" width="6.5" height="6.5" rx="3.25" fill="#0F172A" />
  <rect x="17.875" y="18.625" width="8.125" height="8.125" rx="4.0625" fill="#0F172A" />
  <rect x="17.875" y="33.25" width="8.125" height="8.125" rx="4.0625" fill="#0F172A" />
  <rect x="8.125" y="39.75" width="8.125" height="8.125" rx="4.0625" fill="#0F172A" />
  <rect x="8.125" y="12.125" width="8.125" height="8.125" rx="4.0625" fill="#0F172A" />
  <rect x="27.625" y="12.125" width="16.25" height="16.25" rx="8.125" fill="#0F172A" />
  <rect x="27.625" y="31.625" width="16.25" height="16.25" rx="8.125" fill="#0F172A" />
  <path
    d="M65.344 48.624C62.56 48.624 60.064 48.048 57.856 46.896C55.68 45.712 53.888 43.872 52.48 41.376L58.288 37.68C59.12 39.344 60.176 40.592 61.456 41.424C62.768 42.224 64.192 42.624 65.728 42.624C67.264 42.624 68.48 42.272 69.376 41.568C70.304 40.864 70.768 39.936 70.768 38.784C70.768 37.728 70.432 36.864 69.76 36.192C69.088 35.52 68.224 34.992 67.168 34.608C66.144 34.192 64.784 33.76 63.088 33.312C60.4 32.608 58.304 31.472 56.8 29.904C55.328 28.336 54.592 26.32 54.592 23.856C54.592 21.872 55.088 20.128 56.08 18.624C57.072 17.088 58.464 15.904 60.256 15.072C62.048 14.24 64.112 13.824 66.448 13.824C68.976 13.824 71.12 14.352 72.88 15.408C74.672 16.464 76.224 18.016 77.536 20.064L71.776 23.616C70.944 22.272 70.096 21.312 69.232 20.736C68.368 20.128 67.328 19.824 66.112 19.824C64.736 19.824 63.616 20.16 62.752 20.832C61.888 21.504 61.456 22.4 61.456 23.52C61.456 24.64 61.888 25.488 62.752 26.064C63.616 26.608 64.96 27.168 66.784 27.744C69.024 28.448 70.816 29.104 72.16 29.712C73.504 30.32 74.752 31.344 75.904 32.784C77.056 34.192 77.632 36.064 77.632 38.4C77.632 40.416 77.136 42.208 76.144 43.776C75.152 45.312 73.728 46.512 71.872 47.376C70.016 48.208 67.84 48.624 65.344 48.624ZM89.5791 48C87.0511 48 85.1471 47.376 83.8671 46.128C82.5871 44.88 81.9471 42.928 81.9471 40.272V28.56H78.4431V23.04H81.9471V18L88.4271 17.328V23.04H93.7071V28.56H88.4271V39.936C88.4271 41.472 89.0991 42.24 90.4431 42.24H93.1311V48H89.5791ZM95.8731 23.04H102.161V27.792C102.609 25.968 103.473 24.592 104.753 23.664C106.065 22.736 107.777 22.336 109.889 22.464V28.56H108.977C107.057 28.56 105.473 29.168 104.225 30.384C102.977 31.568 102.353 33.184 102.353 35.232V48H95.8731V23.04ZM121.309 48.576C119.517 48.576 117.901 48.16 116.461 47.328C115.021 46.464 113.885 45.264 113.053 43.728C112.221 42.16 111.805 40.352 111.805 38.304V23.04H118.285V36.72C118.285 40.848 119.949 42.912 123.277 42.912C124.749 42.912 125.981 42.4 126.973 41.376C127.965 40.32 128.461 38.768 128.461 36.72V23.04H134.941V48H128.653V44.256C128.045 45.728 127.149 46.816 125.965 47.52C124.781 48.224 123.229 48.576 121.309 48.576ZM150.668 48.624C148.332 48.624 146.172 48.048 144.188 46.896C142.236 45.712 140.684 44.112 139.532 42.096C138.38 40.08 137.804 37.888 137.804 35.52C137.804 33.12 138.38 30.928 139.532 28.944C140.684 26.928 142.284 25.344 144.332 24.192C146.38 23.008 148.668 22.416 151.196 22.416C153.404 22.416 155.388 22.832 157.148 23.664C158.908 24.464 160.316 25.6 161.372 27.072L156.38 31.152C155.804 30.288 155.052 29.6 154.124 29.088C153.196 28.576 152.188 28.32 151.1 28.32C149.756 28.32 148.572 28.656 147.548 29.328C146.524 29.968 145.724 30.832 145.148 31.92C144.572 33.008 144.284 34.208 144.284 35.52C144.284 36.8 144.572 38 145.148 39.12C145.756 40.208 146.588 41.088 147.644 41.76C148.7 42.4 149.9 42.72 151.244 42.72C152.428 42.72 153.452 42.464 154.316 41.952C155.18 41.44 155.964 40.704 156.668 39.744L161.372 43.824C158.876 47.024 155.308 48.624 150.668 48.624ZM173.392 48C170.864 48 168.96 47.376 167.68 46.128C166.4 44.88 165.76 42.928 165.76 40.272V28.56H162.256V23.04H165.76V18L172.24 17.328V23.04H177.52V28.56H172.24V39.936C172.24 41.472 172.912 42.24 174.256 42.24H176.944V48H173.392ZM188.95 48.576C187.158 48.576 185.542 48.16 184.102 47.328C182.662 46.464 181.526 45.264 180.694 43.728C179.862 42.16 179.446 40.352 179.446 38.304V23.04H185.926V36.72C185.926 40.848 187.59 42.912 190.918 42.912C192.39 42.912 193.622 42.4 194.614 41.376C195.606 40.32 196.102 38.768 196.102 36.72V23.04H202.582V48H196.294V44.256C195.686 45.728 194.79 46.816 193.606 47.52C192.422 48.224 190.87 48.576 188.95 48.576ZM206.404 23.04H212.692V27.792C213.14 25.968 214.004 24.592 215.284 23.664C216.596 22.736 218.308 22.336 220.42 22.464V28.56H219.508C217.588 28.56 216.004 29.168 214.756 30.384C213.508 31.568 212.884 33.184 212.884 35.232V48H206.404V23.04ZM222.576 23.04H229.056V48H222.576V23.04ZM221.904 17.136C221.904 16.08 222.272 15.184 223.008 14.448C223.776 13.712 224.704 13.344 225.792 13.344C226.912 13.344 227.84 13.712 228.576 14.448C229.312 15.184 229.68 16.08 229.68 17.136C229.68 18.224 229.312 19.136 228.576 19.872C227.84 20.608 226.912 20.976 225.792 20.976C224.704 20.976 223.776 20.608 223.008 19.872C222.272 19.104 221.904 18.192 221.904 17.136ZM231.641 47.28L242.585 29.952C242.841 29.568 243.225 29.056 243.737 28.416H232.169V23.04H253.673V23.76L242.633 41.376C242.537 41.536 242.233 41.952 241.721 42.624H253.433V48H231.641V47.28ZM266.45 48.624C263.922 48.624 261.682 48.048 259.73 46.896C257.778 45.712 256.258 44.128 255.17 42.144C254.082 40.16 253.538 37.968 253.538 35.568C253.538 33.2 254.098 31.008 255.218 28.992C256.338 26.976 257.874 25.376 259.826 24.192C261.81 23.008 264.018 22.416 266.45 22.416C268.882 22.416 271.058 23.008 272.978 24.192C274.93 25.376 276.434 26.976 277.49 28.992C278.578 30.976 279.122 33.168 279.122 35.568C279.122 36.368 279.058 37.136 278.93 37.872H260.258C260.642 39.376 261.362 40.592 262.418 41.52C263.506 42.416 264.85 42.864 266.45 42.864C267.794 42.864 268.994 42.56 270.05 41.952C271.106 41.312 271.938 40.496 272.546 39.504L277.586 43.296C276.562 44.896 275.058 46.192 273.074 47.184C271.09 48.144 268.882 48.624 266.45 48.624ZM272.594 33.024C272.21 31.584 271.458 30.384 270.338 29.424C269.218 28.464 267.89 27.984 266.354 27.984C264.85 27.984 263.538 28.448 262.418 29.376C261.33 30.304 260.61 31.52 260.258 33.024H272.594ZM281.967 23.04H288.255V27.792C288.703 25.968 289.567 24.592 290.847 23.664C292.159 22.736 293.871 22.336 295.983 22.464V28.56H295.071C293.151 28.56 291.567 29.168 290.319 30.384C289.071 31.568 288.447 33.184 288.447 35.232V48H281.967V23.04Z"
    fill="#0F172A" />
</svg>